<svg width="18" height="17" viewBox="0 0 18 17" fill="none" xmlns="http://www.w3.org/2000/svg">
<path d="M15.79 8.38236C15.79 8.19709 15.8636 8.01942 15.9946 7.88842C16.1256 7.75742 16.3033 7.68383 16.4885 7.68383C16.6738 7.68383 16.8515 7.75742 16.9825 7.88842C17.1135 8.01942 17.1871 8.19709 17.1871 8.38236V16.0662C17.1871 16.2514 17.1135 16.4291 16.9825 16.5601C16.8515 16.6911 16.6738 16.7647 16.4885 16.7647H1.12089C0.935631 16.7647 0.757958 16.6911 0.626958 16.5601C0.495958 16.4291 0.422363 16.2514 0.422363 16.0662V0.69853C0.422363 0.513268 0.495958 0.335594 0.626958 0.204595C0.757958 0.073595 0.935631 0 1.12089 0H8.80472C8.98998 0 9.16766 0.073595 9.29866 0.204595C9.42966 0.335594 9.50325 0.513268 9.50325 0.69853C9.50325 0.883791 9.42966 1.06146 9.29866 1.19246C9.16766 1.32346 8.98998 1.39706 8.80472 1.39706H1.81942V15.3677H15.79V8.38236Z" fill="#70C032"/>
<path d="M7.88625 11.8328L9.03883 11.6679L16.1191 4.589C16.1858 4.52456 16.2391 4.44749 16.2757 4.36226C16.3123 4.27704 16.3315 4.18538 16.3323 4.09263C16.3332 3.99988 16.3155 3.9079 16.2804 3.82205C16.2452 3.7362 16.1934 3.65821 16.1278 3.59262C16.0622 3.52704 15.9842 3.47517 15.8984 3.44005C15.8125 3.40492 15.7205 3.38725 15.6278 3.38805C15.535 3.38886 15.4434 3.40813 15.3581 3.44474C15.2729 3.48135 15.1958 3.53456 15.1314 3.60128L8.04971 10.6802L7.88486 11.8328H7.88625ZM17.1068 2.61216C17.3016 2.80677 17.4561 3.03785 17.5615 3.29219C17.6669 3.54652 17.7211 3.81913 17.7211 4.09444C17.7211 4.36975 17.6669 4.64236 17.5615 4.8967C17.4561 5.15104 17.3016 5.38211 17.1068 5.57672L9.86309 12.8205C9.75627 12.9277 9.61752 12.9973 9.46772 13.0189L7.16258 13.3486C7.05515 13.364 6.9456 13.3542 6.84263 13.3199C6.73965 13.2856 6.64608 13.2278 6.56934 13.1511C6.4926 13.0743 6.43479 12.9808 6.40051 12.8778C6.36623 12.7748 6.35641 12.6653 6.37184 12.5578L6.70155 10.2527C6.72271 10.1031 6.79183 9.96432 6.89853 9.85731L14.1437 2.61356C14.5367 2.2207 15.0696 2 15.6253 2C16.1809 2 16.7139 2.2207 17.1068 2.61356V2.61216Z" fill="#70C032"/>
</svg>
