<svg width="25" height="15" viewBox="0 0 25 15" fill="none" xmlns="http://www.w3.org/2000/svg">
<path fill-rule="evenodd" clip-rule="evenodd" d="M0.742702 5.50379C2.85878 3.1083 6.88045 0.0577454 12.3079 0.000621166L12.4184 0H12.4619C17.9669 0 22.0444 3.08595 24.1804 5.50379C24.6587 6.0396 24.9231 6.73273 24.9231 7.45098C24.9231 8.16924 24.6587 8.86236 24.1804 9.39817C22.0444 11.816 17.9669 14.902 12.4619 14.902H12.4184L12.3079 14.9013C6.88107 14.8442 2.85878 11.7937 0.742702 9.39817C0.264374 8.86236 0 8.16924 0 7.45098C0 6.73273 0.264374 6.0396 0.742702 5.50379ZM1.67345 6.32588C2.84015 5.0052 4.61038 3.49265 6.88355 2.46255C5.64776 3.82986 4.96476 5.60797 4.96741 7.45098C4.96741 9.36961 5.69264 11.1187 6.88355 12.4394C4.611 11.4093 2.84015 9.89677 1.67345 8.57608C1.39555 8.26723 1.24179 7.86646 1.24179 7.45098C1.24179 7.03551 1.39555 6.63474 1.67345 6.32588ZM12.4358 1.24183L12.3234 1.24245C8.93754 1.29337 6.20924 4.05334 6.20924 7.45098C6.20924 10.8486 8.93816 13.6086 12.3234 13.6595L12.4358 13.6601C15.857 13.6508 18.6275 10.8741 18.6275 7.45098C18.6275 4.02788 15.857 1.25114 12.4358 1.24183ZM19.8694 7.45098C19.8694 9.40066 19.1199 11.1765 17.8936 12.5046C20.237 11.4739 22.0581 9.92471 23.2496 8.57608C23.5275 8.26723 23.6813 7.86646 23.6813 7.45098C23.6813 7.03551 23.5275 6.63474 23.2496 6.32588C22.0581 4.97726 20.237 3.42807 17.8936 2.39735C19.1663 3.77227 19.872 5.57749 19.8694 7.45098Z" fill="#294219"/>
</svg>
