<svg width="19" height="19" viewBox="0 0 19 19" fill="none" xmlns="http://www.w3.org/2000/svg">
<path d="M7.94135 3.02696V3.25981H11.6668V3.02696C11.6668 2.53293 11.4706 2.05913 11.1213 1.7098C10.7719 1.36047 10.2981 1.16422 9.8041 1.16422C9.31007 1.16422 8.83627 1.36047 8.48694 1.7098C8.1376 2.05913 7.94135 2.53293 7.94135 3.02696ZM6.77714 3.25981V3.02696C6.77714 2.22416 7.09605 1.45424 7.66371 0.886577C8.23138 0.318911 9.0013 0 9.8041 0C10.6069 0 11.3768 0.318911 11.9445 0.886577C12.5121 1.45424 12.8311 2.22416 12.8311 3.02696V3.25981H18.07C18.2244 3.25981 18.3725 3.32113 18.4816 3.4303C18.5908 3.53947 18.6521 3.68753 18.6521 3.84191C18.6521 3.9963 18.5908 4.14436 18.4816 4.25353C18.3725 4.36269 18.2244 4.42402 18.07 4.42402H16.7116L15.7803 15.5334C15.7095 16.3771 15.3244 17.1634 14.7012 17.7364C14.078 18.3095 13.2623 18.6275 12.4157 18.6275H7.19253C6.346 18.6274 5.53039 18.3093 4.90731 17.7363C4.28424 17.1632 3.89917 16.377 3.82841 15.5334L2.89704 4.42402H1.53816C1.38378 4.42402 1.23572 4.36269 1.12655 4.25353C1.01738 4.14436 0.956055 3.9963 0.956055 3.84191C0.956055 3.68753 1.01738 3.53947 1.12655 3.4303C1.23572 3.32113 1.38378 3.25981 1.53816 3.25981H6.77714ZM4.98843 15.4361C5.03479 15.9888 5.28708 16.5039 5.6953 16.8794C6.10353 17.2548 6.6379 17.4632 7.19253 17.4632H12.4157C12.9704 17.4633 13.5049 17.255 13.9132 16.8795C14.3215 16.504 14.5739 15.9889 14.6202 15.4361L15.5432 4.42402H4.06498L4.98843 15.4361ZM8.63988 7.56741C8.63988 7.49096 8.62482 7.41527 8.59557 7.34464C8.56632 7.27402 8.52344 7.20985 8.46939 7.15579C8.41533 7.10174 8.35116 7.05886 8.28054 7.02961C8.20991 7.00035 8.13422 6.9853 8.05777 6.9853C7.98133 6.9853 7.90563 7.00035 7.83501 7.02961C7.76439 7.05886 7.70021 7.10174 7.64616 7.15579C7.59211 7.20985 7.54923 7.27402 7.51997 7.34464C7.49072 7.41527 7.47566 7.49096 7.47567 7.56741V14.3199C7.47566 14.3963 7.49072 14.472 7.51997 14.5426C7.54923 14.6132 7.59211 14.6774 7.64616 14.7315C7.70021 14.7855 7.76439 14.8284 7.83501 14.8577C7.90563 14.8869 7.98133 14.902 8.05777 14.902C8.13422 14.902 8.20991 14.8869 8.28054 14.8577C8.35116 14.8284 8.41533 14.7855 8.46939 14.7315C8.52344 14.6774 8.56632 14.6132 8.59557 14.5426C8.62482 14.472 8.63988 14.3963 8.63988 14.3199V7.56741ZM11.5504 6.9853C11.8717 6.9853 12.1325 7.24608 12.1325 7.56741V14.3199C12.1325 14.4742 12.0712 14.6223 11.962 14.7315C11.8529 14.8406 11.7048 14.902 11.5504 14.902C11.396 14.902 11.248 14.8406 11.1388 14.7315C11.0296 14.6223 10.9683 14.4742 10.9683 14.3199V7.56741C10.9683 7.24608 11.2291 6.9853 11.5504 6.9853Z" fill="#2F64CA"/>
</svg>
