<svg width="25" height="27" viewBox="0 0 25 27" fill="none" xmlns="http://www.w3.org/2000/svg">
<path d="M13.5828 4.75377L11.6358 4.75002C7.19467 4.74002 3.3392 8.13627 3.30865 12.25V16.9875C3.30865 17.975 3.17584 18.9388 2.60343 19.76L2.22226 20.3075C1.64188 21.1375 2.26609 22.25 3.30865 22.25H21.9419C22.9845 22.25 23.6073 21.1375 23.0283 20.3075L22.6471 19.76C22.076 18.9388 21.9419 17.9738 21.9419 16.9863V12.2513C21.8888 8.13627 18.024 4.76377 13.5828 4.75377ZM16.6096 22.25C16.6096 23.2446 16.1898 24.1984 15.4426 24.9017C14.6954 25.6049 13.682 26 12.6253 26C11.5686 26 10.5552 25.6049 9.80795 24.9017C9.06075 24.1984 8.64097 23.2446 8.64097 22.25" fill="white"/>
<path d="M16.6096 22.25C16.6096 23.2446 16.1898 24.1984 15.4426 24.9017C14.6954 25.6049 13.682 26 12.6253 26C11.5686 26 10.5552 25.6049 9.80795 24.9017C9.06075 24.1984 8.64097 23.2446 8.64097 22.25M13.5828 4.75377L11.6358 4.75002C7.19467 4.74002 3.3392 8.13627 3.30865 12.25V16.9875C3.30865 17.975 3.17584 18.9388 2.60343 19.76L2.22226 20.3075C1.64188 21.1375 2.26609 22.25 3.30865 22.25H21.9419C22.9845 22.25 23.6073 21.1375 23.0283 20.3075L22.6471 19.76C22.076 18.9388 21.9419 17.9738 21.9419 16.9863V12.2513C21.8888 8.13627 18.024 4.76377 13.5828 4.75377V4.75377Z" stroke="#2D373E" stroke-width="2" stroke-linecap="round" stroke-linejoin="round"/>
<path d="M13.2504 1C13.9135 1 14.5493 1.26339 15.0182 1.73223C15.487 2.20107 15.7504 2.83696 15.7504 3.5V4.75H10.7505V3.5C10.7505 2.83696 11.0139 2.20107 11.4827 1.73223C11.9515 1.26339 12.5874 1 13.2504 1Z" fill="white" stroke="#2D373E" stroke-width="2" stroke-linecap="round" stroke-linejoin="round"/>
</svg>
