<svg width="43" height="34" viewBox="0 0 43 34" fill="none" xmlns="http://www.w3.org/2000/svg">
<rect width="43" height="34" rx="5" fill="#FF8E02"/>
<path d="M7.72909 27V23.451C7.73375 23.1943 7.79442 22.9657 7.91109 22.765C8.03242 22.5597 8.19342 22.3987 8.39409 22.282C8.59942 22.1607 8.83042 22.1 9.08709 22.1H10.8371V22.835H9.17809C9.00075 22.835 8.85375 22.8957 8.73709 23.017C8.62509 23.1337 8.56909 23.2783 8.56909 23.451V24.347H10.5921V25.082H8.56909V27H7.72909ZM11.565 27V23.43H12.37V27H11.565ZM11.964 22.933C11.824 22.933 11.7027 22.8817 11.6 22.779C11.4974 22.6763 11.446 22.555 11.446 22.415C11.446 22.275 11.4974 22.1537 11.6 22.051C11.7027 21.9483 11.824 21.897 11.964 21.897C12.1087 21.897 12.23 21.9483 12.328 22.051C12.4307 22.1537 12.482 22.275 12.482 22.415C12.482 22.555 12.4307 22.6763 12.328 22.779C12.23 22.8817 12.1087 22.933 11.964 22.933ZM13.3355 27V24.942C13.3355 24.634 13.4055 24.361 13.5455 24.123C13.6855 23.8803 13.8839 23.6913 14.1405 23.556C14.3972 23.416 14.6982 23.346 15.0435 23.346C15.3889 23.346 15.6875 23.416 15.9395 23.556C16.1962 23.6913 16.3945 23.8803 16.5345 24.123C16.6745 24.361 16.7445 24.634 16.7445 24.942V27H15.9465V24.949C15.9465 24.767 15.9045 24.6083 15.8205 24.473C15.7365 24.333 15.6245 24.2257 15.4845 24.151C15.3492 24.0717 15.1999 24.032 15.0365 24.032C14.8779 24.032 14.7285 24.0717 14.5885 24.151C14.4532 24.2257 14.3435 24.333 14.2595 24.473C14.1802 24.6083 14.1405 24.767 14.1405 24.949V27H13.3355ZM19.1595 27.084C18.8189 27.084 18.5249 27 18.2775 26.832C18.0302 26.664 17.8389 26.44 17.7035 26.16C17.5729 25.8753 17.5075 25.5627 17.5075 25.222C17.5075 24.8673 17.5822 24.55 17.7315 24.27C17.8855 23.9853 18.1025 23.7613 18.3825 23.598C18.6672 23.43 19.0055 23.346 19.3975 23.346C19.7849 23.346 20.1139 23.43 20.3845 23.598C20.6599 23.7613 20.8699 23.9853 21.0145 24.27C21.1639 24.55 21.2385 24.8627 21.2385 25.208V27H20.4335V26.335H20.4195C20.3495 26.4657 20.2585 26.5893 20.1465 26.706C20.0345 26.818 19.8969 26.909 19.7335 26.979C19.5702 27.049 19.3789 27.084 19.1595 27.084ZM19.3765 26.398C19.5865 26.398 19.7685 26.3467 19.9225 26.244C20.0812 26.1367 20.2049 25.9943 20.2935 25.817C20.3822 25.635 20.4242 25.432 20.4195 25.208C20.4195 24.984 20.3775 24.7857 20.2935 24.613C20.2095 24.4357 20.0905 24.2957 19.9365 24.193C19.7825 24.0857 19.5982 24.032 19.3835 24.032C19.1595 24.032 18.9682 24.0857 18.8095 24.193C18.6509 24.2957 18.5295 24.4357 18.4455 24.613C18.3615 24.7903 18.3195 24.991 18.3195 25.215C18.3195 25.4343 18.3615 25.635 18.4455 25.817C18.5295 25.9943 18.6485 26.1367 18.8025 26.244C18.9612 26.3467 19.1525 26.398 19.3765 26.398ZM22.2018 27V21.89H23.0068V27H22.2018ZM23.9723 27V23.43H24.7773V27H23.9723ZM24.3713 22.933C24.2313 22.933 24.1099 22.8817 24.0073 22.779C23.9046 22.6763 23.8533 22.555 23.8533 22.415C23.8533 22.275 23.9046 22.1537 24.0073 22.051C24.1099 21.9483 24.2313 21.897 24.3713 21.897C24.5159 21.897 24.6373 21.9483 24.7353 22.051C24.8379 22.1537 24.8893 22.275 24.8893 22.415C24.8893 22.555 24.8379 22.6763 24.7353 22.779C24.6373 22.8817 24.5159 22.933 24.3713 22.933ZM26.3238 27C26.1698 27 26.0321 26.9627 25.9108 26.888C25.7894 26.8133 25.6914 26.713 25.6168 26.587C25.5468 26.461 25.5118 26.3233 25.5118 26.174C25.5118 26.0247 25.5491 25.8893 25.6238 25.768C25.6984 25.6467 25.8011 25.5417 25.9318 25.453L27.4858 24.438C27.5324 24.4147 27.5604 24.389 27.5698 24.361C27.5838 24.333 27.5908 24.305 27.5908 24.277C27.5908 24.235 27.5744 24.1977 27.5418 24.165C27.5138 24.1323 27.4741 24.116 27.4228 24.116H25.6868V23.43H27.6608C27.8148 23.43 27.9501 23.4673 28.0668 23.542C28.1881 23.6167 28.2838 23.717 28.3538 23.843C28.4284 23.969 28.4658 24.1067 28.4658 24.256C28.4658 24.4053 28.4284 24.5407 28.3538 24.662C28.2791 24.7833 28.1764 24.8883 28.0458 24.977L26.4988 25.992C26.4568 26.0153 26.4264 26.041 26.4078 26.069C26.3938 26.097 26.3868 26.125 26.3868 26.153C26.3868 26.195 26.4031 26.2323 26.4358 26.265C26.4684 26.2977 26.5104 26.314 26.5618 26.314H28.3958V27H26.3238ZM30.7465 27.084C30.4058 27.084 30.1118 27 29.8645 26.832C29.6171 26.664 29.4258 26.44 29.2905 26.16C29.1598 25.8753 29.0945 25.5627 29.0945 25.222C29.0945 24.8673 29.1691 24.55 29.3185 24.27C29.4725 23.9853 29.6895 23.7613 29.9695 23.598C30.2541 23.43 30.5925 23.346 30.9845 23.346C31.3718 23.346 31.7008 23.43 31.9715 23.598C32.2468 23.7613 32.4568 23.9853 32.6015 24.27C32.7508 24.55 32.8255 24.8627 32.8255 25.208V27H32.0205V26.335H32.0065C31.9365 26.4657 31.8455 26.5893 31.7335 26.706C31.6215 26.818 31.4838 26.909 31.3205 26.979C31.1571 27.049 30.9658 27.084 30.7465 27.084ZM30.9635 26.398C31.1735 26.398 31.3555 26.3467 31.5095 26.244C31.6681 26.1367 31.7918 25.9943 31.8805 25.817C31.9691 25.635 32.0111 25.432 32.0065 25.208C32.0065 24.984 31.9645 24.7857 31.8805 24.613C31.7965 24.4357 31.6775 24.2957 31.5235 24.193C31.3695 24.0857 31.1851 24.032 30.9705 24.032C30.7465 24.032 30.5551 24.0857 30.3965 24.193C30.2378 24.2957 30.1165 24.4357 30.0325 24.613C29.9485 24.7903 29.9065 24.991 29.9065 25.215C29.9065 25.4343 29.9485 25.635 30.0325 25.817C30.1165 25.9943 30.2355 26.1367 30.3895 26.244C30.5481 26.3467 30.7395 26.398 30.9635 26.398ZM33.7607 27V24.445C33.7607 24.1277 33.8493 23.8803 34.0267 23.703C34.2087 23.521 34.4583 23.43 34.7757 23.43H35.6367V24.116H34.9227C34.8107 24.116 34.722 24.1487 34.6567 24.214C34.596 24.2793 34.5657 24.368 34.5657 24.48V27H33.7607Z" fill="white"/>
<path d="M21.5 7C17.9101 7 15 9.91015 15 13.5C15 17.0899 17.9101 20 21.5 20C25.0899 20 28 17.0899 28 13.5C28 9.91015 25.0899 7 21.5 7ZM24.289 10.0445L25.6394 11.395L21.4214 15.6138L20.0789 16.9555L18.7285 15.605L17.3605 14.2363L18.7023 12.8946L20.0702 14.2633L24.289 10.0445Z" fill="white"/>
</svg>
