<svg width="43" height="34" viewBox="0 0 43 34" fill="none" xmlns="http://www.w3.org/2000/svg">
<rect width="43" height="34" rx="5" fill="#FF8E02"/>
<path d="M5.26725 27L6.89825 22.604C6.97759 22.4033 7.09192 22.2563 7.24125 22.163C7.39059 22.065 7.56092 22.016 7.75225 22.016C7.94825 22.016 8.12092 22.0627 8.27025 22.156C8.42425 22.2493 8.53859 22.3963 8.61325 22.597L10.2513 27H9.33425L8.95625 25.915H6.53425L6.14225 27H5.26725ZM6.78625 25.173H8.70425L7.92025 22.884C7.90159 22.8373 7.87825 22.8023 7.85025 22.779C7.82692 22.7557 7.79659 22.744 7.75925 22.744C7.72192 22.744 7.69159 22.758 7.66825 22.786C7.64492 22.8093 7.62625 22.842 7.61225 22.884L6.78625 25.173ZM12.3993 27.084C12.1147 27.084 11.8557 27.0397 11.6223 26.951C11.3937 26.8577 11.1977 26.7247 11.0343 26.552C10.8757 26.3793 10.752 26.1763 10.6633 25.943C10.5793 25.705 10.5373 25.4437 10.5373 25.159C10.5373 24.795 10.6097 24.4777 10.7543 24.207C10.9037 23.9363 11.109 23.7263 11.3703 23.577C11.6317 23.423 11.9303 23.346 12.2663 23.346C12.4343 23.346 12.593 23.3717 12.7423 23.423C12.8917 23.4743 13.027 23.5467 13.1483 23.64C13.2697 23.7333 13.3677 23.843 13.4423 23.969H13.4493V21.89H14.2543V25.173C14.2543 25.565 14.175 25.9057 14.0163 26.195C13.8623 26.4797 13.6453 26.699 13.3653 26.853C13.09 27.007 12.768 27.084 12.3993 27.084ZM12.3993 26.398C12.6047 26.398 12.7843 26.349 12.9383 26.251C13.097 26.1483 13.2207 26.0083 13.3093 25.831C13.398 25.6537 13.4423 25.4483 13.4423 25.215C13.4423 24.9817 13.398 24.7763 13.3093 24.599C13.2207 24.4217 13.097 24.284 12.9383 24.186C12.7843 24.0833 12.6023 24.032 12.3923 24.032C12.1917 24.032 12.012 24.0833 11.8533 24.186C11.6947 24.2887 11.571 24.4287 11.4823 24.606C11.3937 24.7833 11.3493 24.9863 11.3493 25.215C11.3493 25.4483 11.3937 25.6537 11.4823 25.831C11.571 26.0083 11.6947 26.1483 11.8533 26.251C12.0167 26.349 12.1987 26.398 12.3993 26.398ZM15.1905 27V23.43H15.9955V27H15.1905ZM15.5895 22.933C15.4495 22.933 15.3282 22.8817 15.2255 22.779C15.1229 22.6763 15.0715 22.555 15.0715 22.415C15.0715 22.275 15.1229 22.1537 15.2255 22.051C15.3282 21.9483 15.4495 21.897 15.5895 21.897C15.7342 21.897 15.8555 21.9483 15.9535 22.051C16.0562 22.1537 16.1075 22.275 16.1075 22.415C16.1075 22.555 16.0562 22.6763 15.9535 22.779C15.8555 22.8817 15.7342 22.933 15.5895 22.933ZM18.683 27C18.3144 27 17.9854 26.9207 17.696 26.762C17.4067 26.6033 17.178 26.391 17.01 26.125C16.842 25.8543 16.758 25.551 16.758 25.215C16.758 24.879 16.842 24.578 17.01 24.312C17.178 24.0413 17.4067 23.8267 17.696 23.668C17.9854 23.5093 18.3144 23.43 18.683 23.43H19.117V24.116H18.669C18.4544 24.116 18.263 24.165 18.095 24.263C17.9317 24.3563 17.8034 24.487 17.71 24.655C17.6167 24.823 17.57 25.0097 17.57 25.215C17.57 25.4203 17.6167 25.607 17.71 25.775C17.8034 25.943 17.9317 26.076 18.095 26.174C18.263 26.2673 18.4544 26.314 18.669 26.314H19.117V27H18.683ZM19.8184 27V23.43H20.6234V27H19.8184ZM20.2174 22.933C20.0774 22.933 19.9561 22.8817 19.8534 22.779C19.7508 22.6763 19.6994 22.555 19.6994 22.415C19.6994 22.275 19.7508 22.1537 19.8534 22.051C19.9561 21.9483 20.0774 21.897 20.2174 21.897C20.3621 21.897 20.4834 21.9483 20.5814 22.051C20.6841 22.1537 20.7354 22.275 20.7354 22.415C20.7354 22.555 20.6841 22.6763 20.5814 22.779C20.4834 22.8817 20.3621 22.933 20.2174 22.933ZM23.29 27.084C22.9213 27.084 22.5946 27.0023 22.31 26.839C22.0253 26.671 21.799 26.447 21.631 26.167C21.4676 25.8823 21.386 25.565 21.386 25.215C21.386 24.865 21.4676 24.55 21.631 24.27C21.799 23.9853 22.0253 23.7613 22.31 23.598C22.5946 23.43 22.9213 23.346 23.29 23.346C23.654 23.346 23.9783 23.43 24.263 23.598C24.5476 23.7613 24.7716 23.983 24.935 24.263C25.103 24.543 25.187 24.8603 25.187 25.215C25.187 25.565 25.103 25.8823 24.935 26.167C24.7716 26.447 24.5476 26.671 24.263 26.839C23.9783 27.0023 23.654 27.084 23.29 27.084ZM23.29 26.398C23.5093 26.398 23.7006 26.3467 23.864 26.244C24.0273 26.1367 24.1533 25.9943 24.242 25.817C24.3306 25.6397 24.375 25.439 24.375 25.215C24.375 24.9957 24.3306 24.7973 24.242 24.62C24.1533 24.438 24.0273 24.2957 23.864 24.193C23.7006 24.0857 23.5093 24.032 23.29 24.032C23.066 24.032 22.8723 24.0857 22.709 24.193C22.5503 24.2957 22.4243 24.4357 22.331 24.613C22.2423 24.7903 22.198 24.991 22.198 25.215C22.198 25.4343 22.2423 25.635 22.331 25.817C22.4243 25.9943 22.5503 26.1367 22.709 26.244C22.8723 26.3467 23.066 26.398 23.29 26.398ZM25.9503 27V24.942C25.9503 24.634 26.0203 24.361 26.1603 24.123C26.3003 23.8803 26.4986 23.6913 26.7553 23.556C27.012 23.416 27.313 23.346 27.6583 23.346C28.0036 23.346 28.3023 23.416 28.5543 23.556C28.811 23.6913 29.0093 23.8803 29.1493 24.123C29.2893 24.361 29.3593 24.634 29.3593 24.942V27H28.5613V24.949C28.5613 24.767 28.5193 24.6083 28.4353 24.473C28.3513 24.333 28.2393 24.2257 28.0993 24.151C27.964 24.0717 27.8146 24.032 27.6513 24.032C27.4926 24.032 27.3433 24.0717 27.2033 24.151C27.068 24.2257 26.9583 24.333 26.8743 24.473C26.795 24.6083 26.7553 24.767 26.7553 24.949V27H25.9503ZM31.7743 27.084C31.4336 27.084 31.1396 27 30.8923 26.832C30.645 26.664 30.4536 26.44 30.3183 26.16C30.1876 25.8753 30.1223 25.5627 30.1223 25.222C30.1223 24.8673 30.197 24.55 30.3463 24.27C30.5003 23.9853 30.7173 23.7613 30.9973 23.598C31.282 23.43 31.6203 23.346 32.0123 23.346C32.3996 23.346 32.7286 23.43 32.9993 23.598C33.2746 23.7613 33.4846 23.9853 33.6293 24.27C33.7786 24.55 33.8533 24.8627 33.8533 25.208V27H33.0483V26.335H33.0343C32.9643 26.4657 32.8733 26.5893 32.7613 26.706C32.6493 26.818 32.5116 26.909 32.3483 26.979C32.185 27.049 31.9936 27.084 31.7743 27.084ZM31.9913 26.398C32.2013 26.398 32.3833 26.3467 32.5373 26.244C32.696 26.1367 32.8196 25.9943 32.9083 25.817C32.997 25.635 33.039 25.432 33.0343 25.208C33.0343 24.984 32.9923 24.7857 32.9083 24.613C32.8243 24.4357 32.7053 24.2957 32.5513 24.193C32.3973 24.0857 32.213 24.032 31.9983 24.032C31.7743 24.032 31.583 24.0857 31.4243 24.193C31.2656 24.2957 31.1443 24.4357 31.0603 24.613C30.9763 24.7903 30.9343 24.991 30.9343 25.215C30.9343 25.4343 30.9763 25.635 31.0603 25.817C31.1443 25.9943 31.2633 26.1367 31.4173 26.244C31.576 26.3467 31.7673 26.398 31.9913 26.398ZM34.7885 27V24.445C34.7885 24.1277 34.8772 23.8803 35.0545 23.703C35.2365 23.521 35.4862 23.43 35.8035 23.43H36.6645V24.116H35.9505C35.8385 24.116 35.7498 24.1487 35.6845 24.214C35.6238 24.2793 35.5935 24.368 35.5935 24.48V27H34.7885Z" fill="white"/>
<path d="M21.4038 7H19.5962C19.1288 7 18.75 7.37884 18.75 7.84615V10.997C18.75 11.4643 18.3712 11.8431 17.9038 11.8431H14.8462C14.3788 11.8431 14 12.222 14 12.6893V14.5656C14 15.0329 14.3788 15.4118 14.8462 15.4118H17.9038C18.3712 15.4118 18.75 15.7906 18.75 16.2579V19.1538C18.75 19.6212 19.1288 20 19.5962 20H21.4038C21.8712 20 22.25 19.6212 22.25 19.1538V16.2579C22.25 15.7906 22.6288 15.4118 23.0962 15.4118H26.1538C26.6212 15.4118 27 15.0329 27 14.5656V12.6893C27 12.222 26.6212 11.8431 26.1538 11.8431H23.0962C22.6288 11.8431 22.25 11.4643 22.25 10.997V7.84615C22.25 7.37884 21.8712 7 21.4038 7Z" fill="#D9D9D9"/>
<path d="M21.4038 7H19.5962C19.1288 7 18.75 7.37884 18.75 7.84615V10.997C18.75 11.4643 18.3712 11.8431 17.9038 11.8431H14.8462C14.3788 11.8431 14 12.222 14 12.6893V14.5656C14 15.0329 14.3788 15.4118 14.8462 15.4118H17.9038C18.3712 15.4118 18.75 15.7906 18.75 16.2579V19.1538C18.75 19.6212 19.1288 20 19.5962 20H21.4038C21.8712 20 22.25 19.6212 22.25 19.1538V16.2579C22.25 15.7906 22.6288 15.4118 23.0962 15.4118H26.1538C26.6212 15.4118 27 15.0329 27 14.5656V12.6893C27 12.222 26.6212 11.8431 26.1538 11.8431H23.0962C22.6288 11.8431 22.25 11.4643 22.25 10.997V7.84615C22.25 7.37884 21.8712 7 21.4038 7Z" fill="white"/>
</svg>
