<svg width="10" height="10" viewBox="0 0 10 10" fill="none" xmlns="http://www.w3.org/2000/svg">
<path d="M0 1.66667C0 1.22464 0.131696 0.800716 0.366117 0.488155C0.600537 0.175595 0.918479 0 1.25 0H8.75C9.08152 0 9.39946 0.175595 9.63388 0.488155C9.8683 0.800716 10 1.22464 10 1.66667V8.33333C10 8.77536 9.8683 9.19928 9.63388 9.51184C9.39946 9.8244 9.08152 10 8.75 10H1.25C0.918479 10 0.600537 9.8244 0.366117 9.51184C0.131696 9.19928 0 8.77536 0 8.33333V1.66667ZM1.25 0.833333C1.08424 0.833333 0.925268 0.921131 0.808058 1.07741C0.690848 1.23369 0.625 1.44565 0.625 1.66667V2.5H9.375V1.66667C9.375 1.44565 9.30915 1.23369 9.19194 1.07741C9.07473 0.921131 8.91576 0.833333 8.75 0.833333H1.25ZM9.375 4.16667H0.625V8.33333C0.625 8.55435 0.690848 8.76631 0.808058 8.92259C0.925268 9.07887 1.08424 9.16667 1.25 9.16667H8.75C8.91576 9.16667 9.07473 9.07887 9.19194 8.92259C9.30915 8.76631 9.375 8.55435 9.375 8.33333V4.16667Z" fill="white"/>
<path d="M1.25 6.66634C1.25 6.44533 1.31585 6.23337 1.43306 6.07709C1.55027 5.92081 1.70924 5.83301 1.875 5.83301H2.5C2.66576 5.83301 2.82473 5.92081 2.94194 6.07709C3.05915 6.23337 3.125 6.44533 3.125 6.66634V7.49967C3.125 7.72069 3.05915 7.93265 2.94194 8.08893C2.82473 8.24521 2.66576 8.33301 2.5 8.33301H1.875C1.70924 8.33301 1.55027 8.24521 1.43306 8.08893C1.31585 7.93265 1.25 7.72069 1.25 7.49967V6.66634Z" fill="white"/>
</svg>
