<svg width="20" height="20" viewBox="0 0 20 20" fill="none" xmlns="http://www.w3.org/2000/svg">
<g filter="url(#filter0_d_728_114)">
<path d="M11.875 0C12.0408 0 12.1997 0.065848 12.3169 0.183058C12.4342 0.300269 12.5 0.45924 12.5 0.625C12.5 0.79076 12.5658 0.949732 12.6831 1.06694C12.8003 1.18415 12.9592 1.25 13.125 1.25C13.2908 1.25 13.4497 1.31585 13.5669 1.43306C13.6842 1.55027 13.75 1.70924 13.75 1.875V2.5C13.75 2.66576 13.6842 2.82473 13.5669 2.94194C13.4497 3.05915 13.2908 3.125 13.125 3.125H6.875C6.70924 3.125 6.55027 3.05915 6.43306 2.94194C6.31585 2.82473 6.25 2.66576 6.25 2.5V1.875C6.25 1.70924 6.31585 1.55027 6.43306 1.43306C6.55027 1.31585 6.70924 1.25 6.875 1.25C7.04076 1.25 7.19973 1.18415 7.31694 1.06694C7.43415 0.949732 7.5 0.79076 7.5 0.625C7.5 0.45924 7.56585 0.300269 7.68306 0.183058C7.80027 0.065848 7.95924 0 8.125 0L11.875 0Z" fill="white"/>
<path d="M3.75 3.125C3.75 2.95924 3.81585 2.80027 3.93306 2.68306C4.05027 2.56585 4.20924 2.5 4.375 2.5H5C5.16576 2.5 5.32473 2.43415 5.44194 2.31694C5.55915 2.19973 5.625 2.04076 5.625 1.875C5.625 1.70924 5.55915 1.55027 5.44194 1.43306C5.32473 1.31585 5.16576 1.25 5 1.25H4.375C3.87772 1.25 3.40081 1.44754 3.04917 1.79917C2.69754 2.15081 2.5 2.62772 2.5 3.125V18.125C2.5 18.6223 2.69754 19.0992 3.04917 19.4508C3.40081 19.8025 3.87772 20 4.375 20H15.625C16.1223 20 16.5992 19.8025 16.9508 19.4508C17.3025 19.0992 17.5 18.6223 17.5 18.125V3.125C17.5 2.62772 17.3025 2.15081 16.9508 1.79917C16.5992 1.44754 16.1223 1.25 15.625 1.25H15C14.8342 1.25 14.6753 1.31585 14.5581 1.43306C14.4408 1.55027 14.375 1.70924 14.375 1.875C14.375 2.04076 14.4408 2.19973 14.5581 2.31694C14.6753 2.43415 14.8342 2.5 15 2.5H15.625C15.7908 2.5 15.9497 2.56585 16.0669 2.68306C16.1842 2.80027 16.25 2.95924 16.25 3.125V18.125C16.25 18.2908 16.1842 18.4497 16.0669 18.5669C15.9497 18.6842 15.7908 18.75 15.625 18.75H4.375C4.20924 18.75 4.05027 18.6842 3.93306 18.5669C3.81585 18.4497 3.75 18.2908 3.75 18.125V3.125Z" fill="white"/>
<path d="M13.5673 9.81731C13.6847 9.69996 13.7506 9.54078 13.7506 9.37481C13.7506 9.20884 13.6847 9.04967 13.5673 8.93231C13.45 8.81495 13.2908 8.74902 13.1248 8.74902C12.9588 8.74902 12.7997 8.81495 12.6823 8.93231L9.37481 12.2411L7.94231 10.8073C7.82496 10.69 7.66578 10.624 7.49981 10.624C7.33384 10.624 7.17467 10.69 7.05731 10.8073C6.93995 10.9247 6.87402 11.0838 6.87402 11.2498C6.87402 11.4158 6.93995 11.575 7.05731 11.6923L8.93231 13.5673C8.99037 13.6255 9.05934 13.6717 9.13527 13.7032C9.2112 13.7347 9.2926 13.7509 9.37481 13.7509C9.45702 13.7509 9.53842 13.7347 9.61436 13.7032C9.69029 13.6717 9.75926 13.6255 9.81731 13.5673L13.5673 9.81731V9.81731Z" fill="white"/>
</g>
<defs>
<filter id="filter0_d_728_114" x="-1.5" y="0" width="23" height="28" filterUnits="userSpaceOnUse" color-interpolation-filters="sRGB">
<feFlood flood-opacity="0" result="BackgroundImageFix"/>
<feColorMatrix in="SourceAlpha" type="matrix" values="0 0 0 0 0 0 0 0 0 0 0 0 0 0 0 0 0 0 127 0" result="hardAlpha"/>
<feOffset dy="4"/>
<feGaussianBlur stdDeviation="2"/>
<feComposite in2="hardAlpha" operator="out"/>
<feColorMatrix type="matrix" values="0 0 0 0 0 0 0 0 0 0 0 0 0 0 0 0 0 0 0.25 0"/>
<feBlend mode="normal" in2="BackgroundImageFix" result="effect1_dropShadow_728_114"/>
<feBlend mode="normal" in="SourceGraphic" in2="effect1_dropShadow_728_114" result="shape"/>
</filter>
</defs>
</svg>
