<svg width="25" height="25" viewBox="0 0 25 25" fill="none" xmlns="http://www.w3.org/2000/svg">
<path d="M14.6 3.33245C14.6 2.5964 14.0036 2 13.2675 2H11.7335C10.9964 2 10.4 2.5964 10.4 3.33245C10.4 3.93935 9.9842 4.46015 9.41825 4.68275C9.329 4.71845 9.23975 4.75625 9.1526 4.79405C8.59505 5.03555 7.9325 4.96205 7.502 4.5326C7.25214 4.28292 6.91337 4.14267 6.56015 4.14267C6.20693 4.14267 5.86816 4.28292 5.6183 4.5326L4.5326 5.6183C4.28292 5.86816 4.14267 6.20693 4.14267 6.56015C4.14267 6.91337 4.28292 7.25214 4.5326 7.502C4.9631 7.9325 5.0366 8.594 4.793 9.1526C4.75473 9.24051 4.71797 9.32907 4.68275 9.41825C4.46015 9.9842 3.93935 10.4 3.33245 10.4C2.5964 10.4 2 10.9964 2 11.7324V13.2675C2 14.0036 2.5964 14.6 3.33245 14.6C3.93935 14.6 4.46015 15.0158 4.68275 15.5817C4.71845 15.671 4.75625 15.7602 4.793 15.8474C5.03555 16.4049 4.96205 17.0675 4.5326 17.498C4.28292 17.7479 4.14267 18.0866 4.14267 18.4398C4.14267 18.7931 4.28292 19.1318 4.5326 19.3817L5.6183 20.4674C5.86816 20.7171 6.20693 20.8573 6.56015 20.8573C6.91337 20.8573 7.25214 20.7171 7.502 20.4674C7.9325 20.0369 8.594 19.9634 9.1526 20.2059C9.23975 20.2448 9.329 20.2815 9.41825 20.3172C9.9842 20.5398 10.4 21.0607 10.4 21.6676C10.4 22.4036 10.9964 23 11.7324 23H13.2675C14.0036 23 14.6 22.4036 14.6 21.6676C14.6 21.0607 15.0158 20.5398 15.5817 20.3162C15.671 20.2815 15.7602 20.2448 15.8474 20.207C16.4049 19.9634 17.0675 20.0379 17.497 20.4674C17.6207 20.5912 17.7676 20.6894 17.9293 20.7564C18.091 20.8234 18.2643 20.8579 18.4393 20.8579C18.6143 20.8579 18.7877 20.8234 18.9494 20.7564C19.1111 20.6894 19.258 20.5912 19.3817 20.4674L20.4674 19.3817C20.7171 19.1318 20.8573 18.7931 20.8573 18.4398C20.8573 18.0866 20.7171 17.7479 20.4674 17.498C20.0369 17.0675 19.9634 16.406 20.2059 15.8474C20.2448 15.7602 20.2815 15.671 20.3172 15.5817C20.5398 15.0158 21.0607 14.6 21.6676 14.6C22.4036 14.6 23 14.0036 23 13.2675V11.7335C23 10.9975 22.4036 10.4011 21.6676 10.4011C21.0607 10.4011 20.5398 9.98525 20.3162 9.4193C20.281 9.33011 20.2443 9.24154 20.2059 9.15365C19.9644 8.5961 20.0379 7.93355 20.4674 7.50305C20.7171 7.25319 20.8573 6.91442 20.8573 6.5612C20.8573 6.20798 20.7171 5.86921 20.4674 5.61935L19.3817 4.53365C19.1318 4.28397 18.7931 4.14372 18.4398 4.14372C18.0866 4.14372 17.7479 4.28397 17.498 4.53365C17.0675 4.96415 16.406 5.03765 15.8474 4.7951C15.7595 4.75647 15.6709 4.71936 15.5817 4.6838C15.0158 4.46015 14.6 3.93935 14.6 3.3335V3.33245Z" stroke="black" stroke-opacity="0.5" stroke-width="2.5"/>
<path d="M16.7 12.4998C16.7 13.6137 16.2575 14.682 15.4699 15.4697C14.6822 16.2573 13.614 16.6998 12.5 16.6998C11.3861 16.6998 10.3179 16.2573 9.5302 15.4697C8.74255 14.682 8.30005 13.6137 8.30005 12.4998C8.30005 11.3859 8.74255 10.3176 9.5302 9.52996C10.3179 8.7423 11.3861 8.2998 12.5 8.2998C13.614 8.2998 14.6822 8.7423 15.4699 9.52996C16.2575 10.3176 16.7 11.3859 16.7 12.4998V12.4998Z" stroke="black" stroke-opacity="0.5" stroke-width="2.5"/>
</svg>
