<svg width="21" height="21" viewBox="0 0 21 21" fill="none" xmlns="http://www.w3.org/2000/svg">
<path d="M10.7441 1.36664C10.5874 1.30355 10.4126 1.30355 10.2559 1.36664L2.42287 4.51471L10.5 7.76036L18.5771 4.51471L10.7441 1.36664ZM19.6875 5.48933L11.1562 8.9183V19.3661L19.6875 15.9371V5.49064V5.48933ZM9.84375 19.3674V8.91698L1.3125 5.48933V15.9385L9.84375 19.3674ZM9.76894 0.141446C10.2382 -0.0471486 10.7618 -0.0471486 11.2311 0.141446L20.5879 3.90277C20.7095 3.95176 20.8138 4.03622 20.8872 4.14529C20.9607 4.25435 21 4.38302 21 4.51471V15.9385C20.9998 16.202 20.9211 16.4594 20.774 16.6776C20.6268 16.8957 20.418 17.0646 20.1744 17.1623L10.7441 20.9527C10.5874 21.0158 10.4126 21.0158 10.2559 20.9527L0.826875 17.1623C0.58308 17.0648 0.373987 16.896 0.226593 16.6779C0.0791985 16.4597 0.000270807 16.2021 0 15.9385L0 4.51471C3.05024e-05 4.38302 0.0393012 4.25435 0.112753 4.14529C0.186205 4.03622 0.290473 3.95176 0.412125 3.90277L9.76894 0.141446Z" fill="black" fill-opacity="0.5"/>
</svg>
