<svg width="18" height="22" viewBox="0 0 18 22" fill="none" xmlns="http://www.w3.org/2000/svg">
<path d="M4 4.71429C3.78783 4.71429 3.58434 4.79707 3.43431 4.94442C3.28429 5.09177 3.2 5.29162 3.2 5.5C3.2 5.70838 3.28429 5.90823 3.43431 6.05558C3.58434 6.20293 3.78783 6.28571 4 6.28571V4.71429ZM7.2 6.28571C7.41217 6.28571 7.61566 6.20293 7.76569 6.05558C7.91571 5.90823 8 5.70838 8 5.5C8 5.29162 7.91571 5.09177 7.76569 4.94442C7.61566 4.79707 7.41217 4.71429 7.2 4.71429V6.28571ZM4 10.2143C3.78783 10.2143 3.58434 10.2971 3.43431 10.4444C3.28429 10.5918 3.2 10.7916 3.2 11C3.2 11.2084 3.28429 11.4082 3.43431 11.5556C3.58434 11.7029 3.78783 11.7857 4 11.7857V10.2143ZM13.6 11.7857C13.8122 11.7857 14.0157 11.7029 14.1657 11.5556C14.3157 11.4082 14.4 11.2084 14.4 11C14.4 10.7916 14.3157 10.5918 14.1657 10.4444C14.0157 10.2971 13.8122 10.2143 13.6 10.2143V11.7857ZM4 13.3571C3.78783 13.3571 3.58434 13.4399 3.43431 13.5873C3.28429 13.7346 3.2 13.9345 3.2 14.1429C3.2 14.3512 3.28429 14.5511 3.43431 14.6984C3.58434 14.8458 3.78783 14.9286 4 14.9286V13.3571ZM13.6 14.9286C13.8122 14.9286 14.0157 14.8458 14.1657 14.6984C14.3157 14.5511 14.4 14.3512 14.4 14.1429C14.4 13.9345 14.3157 13.7346 14.1657 13.5873C14.0157 13.4399 13.8122 13.3571 13.6 13.3571V14.9286ZM4 16.5C3.78783 16.5 3.58434 16.5828 3.43431 16.7301C3.28429 16.8775 3.2 17.0773 3.2 17.2857C3.2 17.4941 3.28429 17.6939 3.43431 17.8413C3.58434 17.9886 3.78783 18.0714 4 18.0714V16.5ZM7.2 18.0714C7.41217 18.0714 7.61566 17.9886 7.76569 17.8413C7.91571 17.6939 8 17.4941 8 17.2857C8 17.0773 7.91571 16.8775 7.76569 16.7301C7.61566 16.5828 7.41217 16.5 7.2 16.5V18.0714ZM2.4 1.57143H15.2V0H2.4V1.57143ZM16 2.35714V19.6429H17.6V2.35714H16ZM15.2 20.4286H2.4V22H15.2V20.4286ZM1.6 19.6429V2.35714H0V19.6429H1.6ZM2.4 20.4286C2.18783 20.4286 1.98434 20.3458 1.83431 20.1984C1.68429 20.0511 1.6 19.8512 1.6 19.6429H0C0 20.268 0.252856 20.8676 0.702944 21.3096C1.15303 21.7517 1.76348 22 2.4 22V20.4286ZM16 19.6429C16 19.8512 15.9157 20.0511 15.7657 20.1984C15.6157 20.3458 15.4122 20.4286 15.2 20.4286V22C15.8365 22 16.447 21.7517 16.8971 21.3096C17.3471 20.8676 17.6 20.268 17.6 19.6429H16ZM15.2 1.57143C15.4122 1.57143 15.6157 1.65421 15.7657 1.80156C15.9157 1.94891 16 2.14876 16 2.35714H17.6C17.6 1.73199 17.3471 1.13244 16.8971 0.690391C16.447 0.248341 15.8365 0 15.2 0V1.57143ZM2.4 0C1.76348 0 1.15303 0.248341 0.702944 0.690391C0.252856 1.13244 0 1.73199 0 2.35714H1.6C1.6 2.14876 1.68429 1.94891 1.83431 1.80156C1.98434 1.65421 2.18783 1.57143 2.4 1.57143V0ZM4 6.28571H7.2V4.71429H4V6.28571ZM4 11.7857H13.6V10.2143H4V11.7857ZM4 14.9286H13.6V13.3571H4V14.9286ZM4 18.0714H7.2V16.5H4V18.0714Z" fill="white"/>
</svg>
