<svg width="21" height="22" viewBox="0 0 21 22" fill="none" xmlns="http://www.w3.org/2000/svg">
<path d="M10.5 21.933H4.2C4.2 21.3513 4.42125 20.7934 4.81508 20.3821C5.2089 19.9708 5.74304 19.7397 6.3 19.7397V6.5799H0V3.28995H14.7V6.5799H8.4V19.7397C8.95695 19.7397 9.4911 19.9708 9.88492 20.3821C10.2787 20.7934 10.5 21.3513 10.5 21.933ZM21 0V21.933H18.9V14.2565H13.65V21.933H11.55V13.1598C11.55 12.5781 11.7712 12.0202 12.1651 11.6089C12.5589 11.1976 13.093 10.9665 13.65 10.9665H18.9V0H21Z" fill="black" fill-opacity="0.5"/>
</svg>
