<svg width="80" height="80" viewBox="0 0 80 80" fill="none" xmlns="http://www.w3.org/2000/svg">
<rect width="80" height="80" rx="10" fill="#FF8E02"/>
<path d="M25 32.5C25 31.5054 25.3951 30.5516 26.0983 29.8483C26.8016 29.1451 27.7554 28.75 28.75 28.75H51.25C52.2446 28.75 53.1984 29.1451 53.9016 29.8483C54.6049 30.5516 55 31.5054 55 32.5V47.5C55 48.4946 54.6049 49.4484 53.9016 50.1516C53.1984 50.8549 52.2446 51.25 51.25 51.25H28.75C27.7554 51.25 26.8016 50.8549 26.0983 50.1516C25.3951 49.4484 25 48.4946 25 47.5V32.5ZM28.75 30.625C28.2527 30.625 27.7758 30.8225 27.4242 31.1742C27.0725 31.5258 26.875 32.0027 26.875 32.5V34.375H53.125V32.5C53.125 32.0027 52.9275 31.5258 52.5758 31.1742C52.2242 30.8225 51.7473 30.625 51.25 30.625H28.75ZM53.125 38.125H26.875V47.5C26.875 47.9973 27.0725 48.4742 27.4242 48.8258C27.7758 49.1775 28.2527 49.375 28.75 49.375H51.25C51.7473 49.375 52.2242 49.1775 52.5758 48.8258C52.9275 48.4742 53.125 47.9973 53.125 47.5V38.125Z" fill="white"/>
<path d="M28.75 43.75C28.75 43.2527 28.9475 42.7758 29.2992 42.4242C29.6508 42.0725 30.1277 41.875 30.625 41.875H32.5C32.9973 41.875 33.4742 42.0725 33.8258 42.4242C34.1775 42.7758 34.375 43.2527 34.375 43.75V45.625C34.375 46.1223 34.1775 46.5992 33.8258 46.9508C33.4742 47.3025 32.9973 47.5 32.5 47.5H30.625C30.1277 47.5 29.6508 47.3025 29.2992 46.9508C28.9475 46.5992 28.75 46.1223 28.75 45.625V43.75Z" fill="white"/>
</svg>
