<svg width="80" height="80" viewBox="0 0 80 80" fill="none" xmlns="http://www.w3.org/2000/svg">
<rect width="80" height="80" rx="10" fill="#FF8E02"/>
<path d="M40 43.75C40.9946 43.75 41.9484 43.3549 42.6516 42.6516C43.3549 41.9484 43.75 40.9946 43.75 40C43.75 39.0054 43.3549 38.0516 42.6516 37.3483C41.9484 36.6451 40.9946 36.25 40 36.25C39.0054 36.25 38.0516 36.6451 37.3483 37.3483C36.6451 38.0516 36.25 39.0054 36.25 40C36.25 40.9946 36.6451 41.9484 37.3483 42.6516C38.0516 43.3549 39.0054 43.75 40 43.75Z" fill="white"/>
<path d="M25 32.5C25 32.0027 25.1975 31.5258 25.5492 31.1742C25.9008 30.8225 26.3777 30.625 26.875 30.625H53.125C53.6223 30.625 54.0992 30.8225 54.4508 31.1742C54.8025 31.5258 55 32.0027 55 32.5V47.5C55 47.9973 54.8025 48.4742 54.4508 48.8258C54.0992 49.1775 53.6223 49.375 53.125 49.375H26.875C26.3777 49.375 25.9008 49.1775 25.5492 48.8258C25.1975 48.4742 25 47.9973 25 47.5V32.5ZM30.625 32.5C30.625 33.4946 30.2299 34.4484 29.5267 35.1517C28.8234 35.8549 27.8696 36.25 26.875 36.25V43.75C27.8696 43.75 28.8234 44.1451 29.5267 44.8484C30.2299 45.5516 30.625 46.5054 30.625 47.5H49.375C49.375 46.5054 49.7701 45.5516 50.4734 44.8484C51.1766 44.1451 52.1304 43.75 53.125 43.75V36.25C52.1304 36.25 51.1766 35.8549 50.4734 35.1517C49.7701 34.4484 49.375 33.4946 49.375 32.5H30.625Z" fill="white"/>
</svg>
