<svg width="80" height="80" viewBox="0 0 80 80" fill="none" xmlns="http://www.w3.org/2000/svg">
<rect width="80" height="80" rx="10" fill="#FF8E02"/>
<path d="M29.2149 45V34.5H33.1449C34.0349 34.5 34.7999 34.645 35.4399 34.935C36.0799 35.215 36.5699 35.625 36.9099 36.165C37.2599 36.695 37.4349 37.34 37.4349 38.1C37.4349 38.84 37.2599 39.48 36.9099 40.02C36.5699 40.55 36.0799 40.96 35.4399 41.25C34.7999 41.54 34.0349 41.685 33.1449 41.685H29.8299L30.3249 41.16V45H29.2149ZM30.3249 41.25L29.8299 40.71H33.1149C34.1649 40.71 34.9599 40.485 35.4999 40.035C36.0499 39.575 36.3249 38.93 36.3249 38.1C36.3249 37.26 36.0499 36.61 35.4999 36.15C34.9599 35.69 34.1649 35.46 33.1149 35.46H29.8299L30.3249 34.935V41.25ZM39.835 45V34.5H40.945V45H39.835ZM42.9064 45L47.2114 39.18V40.035L43.1614 34.5H44.4364L47.8414 39.12L47.3464 39.135L50.7514 34.5H51.9514L47.9464 39.96V39.18L52.2364 45H50.9464L47.3164 40.065H47.7814L44.1814 45H42.9064Z" fill="white"/>
</svg>
