<svg width="80" height="80" viewBox="0 0 80 80" fill="none" xmlns="http://www.w3.org/2000/svg">
<rect width="80" height="80" rx="10" fill="#FF8E02"/>
<path d="M27.6 26C27.1757 26 26.7687 26.1686 26.4686 26.4686C26.1686 26.7687 26 27.1757 26 27.6V34H34V26H27.6ZM32 32H28V28H32V32Z" fill="white"/>
<path d="M26 52.4C26 52.8243 26.1686 53.2313 26.4686 53.5314C26.7687 53.8314 27.1757 54 27.6 54H34V46H26V52.4ZM28 48H32V52H28V48Z" fill="white"/>
<path d="M46 54H52.4C52.8243 54 53.2313 53.8314 53.5314 53.5314C53.8314 53.2313 54 52.8243 54 52.4V46H46V54ZM48 48H52V52H48V48Z" fill="white"/>
<path d="M52.4 26H46V34H54V27.6C54 27.1757 53.8314 26.7687 53.5314 26.4686C53.2313 26.1686 52.8243 26 52.4 26ZM52 32H48V28H52V32Z" fill="white"/>
<path d="M42 32V30H38V34H40V32H42Z" fill="white"/>
<path d="M34 34H36V36H34V34Z" fill="white"/>
<path d="M36 36H40V38H36V36Z" fill="white"/>
<path d="M42 28V30H44V26H36V30H38V28H42Z" fill="white"/>
<path d="M26 36H28V40H26V36Z" fill="white"/>
<path d="M34 38V40H32V36H30V40H28V42H26V44H30V42H32V44H34V42H36V38H34Z" fill="white"/>
<path d="M42 38H44V40H46V38H48V36H44V32H42V34H40V36H42V38Z" fill="white"/>
<path d="M40 52H36V54H44V52H42V50H40V52Z" fill="white"/>
<path d="M44 42V40H42V38H40V40H38V42H40V44H42V42H44Z" fill="white"/>
<path d="M52 42H54V44H52V42Z" fill="white"/>
<path d="M44 42H50V44H44V42Z" fill="white"/>
<path d="M52 36H50V38H48V40H50V42H52V40H54V38H52V36Z" fill="white"/>
<path d="M42 44H44V50H42V44Z" fill="white"/>
<path d="M36 50H38V48H40V46H38V42H36V50Z" fill="white"/>
</svg>
