<svg width="20" height="20" viewBox="0 0 20 20" fill="none" xmlns="http://www.w3.org/2000/svg">
<path d="M12.8489 1.54281C12.7685 1.45355 12.6708 1.38159 12.5618 1.33132C12.4527 1.28105 12.3345 1.25351 12.2145 1.25039C12.0944 1.24728 11.975 1.26863 11.8634 1.31317C11.7519 1.35771 11.6506 1.4245 11.5657 1.50946L1.51052 11.5716C1.42636 11.656 1.36006 11.7564 1.3156 11.867C1.27114 11.9775 1.24942 12.0959 1.25176 12.2151C1.25409 12.3342 1.28042 12.4517 1.32918 12.5604C1.37794 12.6692 1.44812 12.767 1.53552 12.8479L2.68128 13.9083C2.71211 13.9375 2.76794 13.9675 2.87543 13.9717C2.98709 13.9767 3.12792 13.9508 3.27041 13.8925C3.73492 13.7037 4.24357 13.6512 4.73682 13.7411C5.23007 13.8311 5.6875 14.0597 6.05557 14.4003C6.42364 14.7409 6.68711 15.1794 6.81514 15.6643C6.94318 16.1493 6.93047 16.6607 6.77851 17.1387C6.73492 17.2676 6.71846 17.4041 6.73018 17.5397C6.74351 17.6464 6.77768 17.6998 6.80934 17.7281L7.65928 18.5151C7.82618 18.6695 8.04605 18.7537 8.27333 18.7502C8.5006 18.7468 8.71785 18.6561 8.88004 18.4967L18.4861 9.05816C18.649 8.89811 18.7438 8.6813 18.7508 8.45296C18.7578 8.22463 18.6764 8.00241 18.5236 7.83269L17.6278 6.83898C17.5995 6.80897 17.5495 6.77479 17.4461 6.75895C17.3157 6.74409 17.1835 6.75601 17.0578 6.79397C16.6656 6.90332 16.2535 6.92048 15.8535 6.84413C15.4536 6.76777 15.0767 6.59996 14.7524 6.3538C14.428 6.10764 14.1649 5.78979 13.9836 5.42508C13.8023 5.06037 13.7077 4.65866 13.7072 4.25134C13.7072 3.90954 13.7722 3.58275 13.8905 3.2818C13.9455 3.14258 13.9697 3.0067 13.9655 2.89916C13.9605 2.79578 13.9322 2.74243 13.9039 2.71159L12.8506 1.54364L12.8489 1.54281ZM10.6824 0.625794C10.8872 0.420894 11.1314 0.259813 11.4004 0.15235C11.6693 0.0448867 11.9573 -0.00671008 12.2468 0.000698416C12.5363 0.00810691 12.8213 0.0743659 13.0844 0.195444C13.3475 0.316522 13.5832 0.489887 13.7772 0.704991L14.8313 1.87293C15.3596 2.45899 15.2463 3.24929 15.053 3.74031C14.958 3.98103 14.9321 4.2435 14.9782 4.49815C15.0243 4.7528 15.1405 4.98951 15.3139 5.18162C15.4872 5.37374 15.7107 5.51361 15.9592 5.5855C16.2077 5.65739 16.4713 5.65843 16.7203 5.58851C17.2278 5.44679 18.0253 5.41344 18.5544 6.00033L19.4502 6.99404C19.819 7.40313 20.0156 7.93894 19.999 8.48961C19.9824 9.04028 19.7538 9.56324 19.361 9.94933L9.75498 19.3879C9.36367 19.7724 8.83944 19.9915 8.291 19.9998C7.74256 20.008 7.21199 19.8047 6.80934 19.4321L5.9594 18.6451C5.36443 18.0949 5.4236 17.2721 5.58692 16.7594C5.66698 16.5078 5.67372 16.2386 5.60636 15.9832C5.539 15.7279 5.40033 15.4971 5.20657 15.3178C5.01282 15.1385 4.77201 15.0181 4.51235 14.9707C4.25268 14.9234 3.9849 14.951 3.74038 15.0504C3.24124 15.253 2.4263 15.3756 1.83217 14.8253L0.685579 13.7658C0.474525 13.5705 0.305052 13.3346 0.187317 13.0722C0.0695815 12.8098 0.00600785 12.5264 0.000405592 12.2388C-0.00519667 11.9512 0.0472878 11.6655 0.154714 11.3987C0.26214 11.132 0.422296 10.8896 0.625583 10.6863L10.6832 0.626628L10.6824 0.625794Z" fill="white"/>
</svg>
