<svg width="21" height="29" viewBox="0 0 21 29" fill="none" xmlns="http://www.w3.org/2000/svg">
<path d="M15.3125 12.7543C14.9644 12.7543 14.6306 12.6153 14.3844 12.3678C14.1383 12.1204 14 11.7848 14 11.4349C14 11.0849 14.1383 10.7493 14.3844 10.5019C14.6306 10.2545 14.9644 10.1155 15.3125 10.1155C15.6606 10.1155 15.9944 10.2545 16.2406 10.5019C16.4867 10.7493 16.625 11.0849 16.625 11.4349C16.625 11.7848 16.4867 12.1204 16.2406 12.3678C15.9944 12.6153 15.6606 12.7543 15.3125 12.7543ZM15.3125 18.0319C14.9644 18.0319 14.6306 17.8929 14.3844 17.6455C14.1383 17.398 14 17.0624 14 16.7125C14 16.3626 14.1383 16.027 14.3844 15.7795C14.6306 15.5321 14.9644 15.3931 15.3125 15.3931C15.6606 15.3931 15.9944 15.5321 16.2406 15.7795C16.4867 16.027 16.625 16.3626 16.625 16.7125C16.625 17.0624 16.4867 17.398 16.2406 17.6455C15.9944 17.8929 15.6606 18.0319 15.3125 18.0319ZM14 21.9901C14 22.3401 14.1383 22.6757 14.3844 22.9231C14.6306 23.1705 14.9644 23.3095 15.3125 23.3095C15.6606 23.3095 15.9944 23.1705 16.2406 22.9231C16.4867 22.6757 16.625 22.3401 16.625 21.9901C16.625 21.6402 16.4867 21.3046 16.2406 21.0572C15.9944 20.8097 15.6606 20.6707 15.3125 20.6707C14.9644 20.6707 14.6306 20.8097 14.3844 21.0572C14.1383 21.3046 14 21.6402 14 21.9901ZM12.25 11.4349C12.25 11.2016 12.1578 10.9779 11.9937 10.8129C11.8296 10.6479 11.6071 10.5553 11.375 10.5553H5.25C5.01794 10.5553 4.79538 10.6479 4.63128 10.8129C4.46719 10.9779 4.375 11.2016 4.375 11.4349C4.375 11.6682 4.46719 11.8919 4.63128 12.0568C4.79538 12.2218 5.01794 12.3145 5.25 12.3145H11.375C11.6071 12.3145 11.8296 12.2218 11.9937 12.0568C12.1578 11.8919 12.25 11.6682 12.25 11.4349ZM12.25 16.7125C12.25 16.4792 12.1578 16.2555 11.9937 16.0905C11.8296 15.9256 11.6071 15.8329 11.375 15.8329H5.25C5.01794 15.8329 4.79538 15.9256 4.63128 16.0905C4.46719 16.2555 4.375 16.4792 4.375 16.7125C4.375 16.9458 4.46719 17.1695 4.63128 17.3345C4.79538 17.4994 5.01794 17.5921 5.25 17.5921H11.375C11.6071 17.5921 11.8296 17.4994 11.9937 17.3345C12.1578 17.1695 12.25 16.9458 12.25 16.7125ZM12.25 21.9901C12.25 21.7568 12.1578 21.5331 11.9937 21.3682C11.8296 21.2032 11.6071 21.1105 11.375 21.1105H5.25C5.01794 21.1105 4.79538 21.2032 4.63128 21.3682C4.46719 21.5331 4.375 21.7568 4.375 21.9901C4.375 22.2234 4.46719 22.4471 4.63128 22.6121C4.79538 22.7771 5.01794 22.8697 5.25 22.8697H11.375C11.6071 22.8697 11.8296 22.7771 11.9937 22.6121C12.1578 22.4471 12.25 22.2234 12.25 21.9901ZM7.875 3.62814e-07C7.33193 -0.000285837 6.80214 0.168757 6.35864 0.483833C5.91514 0.798908 5.57977 1.2445 5.39875 1.75921H2.625C1.92881 1.75921 1.26113 2.03723 0.768844 2.5321C0.276561 3.02698 0 3.69817 0 4.39803V25.5086C0 26.2084 0.276561 26.8796 0.768844 27.3745C1.26113 27.8694 1.92881 28.1474 2.625 28.1474H18.375C19.0712 28.1474 19.7389 27.8694 20.2312 27.3745C20.7234 26.8796 21 26.2084 21 25.5086V4.39803C21 3.69817 20.7234 3.02698 20.2312 2.5321C19.7389 2.03723 19.0712 1.75921 18.375 1.75921H15.6012C15.4202 1.2445 15.0849 0.798908 14.6414 0.483833C14.1979 0.168757 13.6681 -0.000285837 13.125 3.62814e-07H7.875ZM7 2.63882C7 2.40553 7.09219 2.1818 7.25628 2.01684C7.42038 1.85188 7.64294 1.75921 7.875 1.75921H13.125C13.3571 1.75921 13.5796 1.85188 13.7437 2.01684C13.9078 2.1818 14 2.40553 14 2.63882C14 2.8721 13.9078 3.09583 13.7437 3.26079C13.5796 3.42575 13.3571 3.51842 13.125 3.51842H7.875C7.64294 3.51842 7.42038 3.42575 7.25628 3.26079C7.09219 3.09583 7 2.8721 7 2.63882ZM2.625 3.51842H5.39875C5.57977 4.03313 5.91514 4.47872 6.35864 4.7938C6.80214 5.10887 7.33193 5.27792 7.875 5.27763H13.125C13.6681 5.27792 14.1979 5.10887 14.6414 4.7938C15.0849 4.47872 15.4202 4.03313 15.6012 3.51842H18.375C18.6071 3.51842 18.8296 3.61109 18.9937 3.77605C19.1578 3.94101 19.25 4.16474 19.25 4.39803V25.5086C19.25 25.7418 19.1578 25.9656 18.9937 26.1305C18.8296 26.2955 18.6071 26.3882 18.375 26.3882H2.625C2.39294 26.3882 2.17038 26.2955 2.00628 26.1305C1.84219 25.9656 1.75 25.7418 1.75 25.5086V4.39803C1.75 4.16474 1.84219 3.94101 2.00628 3.77605C2.17038 3.61109 2.39294 3.51842 2.625 3.51842Z" fill="black" fill-opacity="0.5"/>
</svg>
