<svg width="16" height="20" viewBox="0 0 16 20" fill="none" xmlns="http://www.w3.org/2000/svg">
<path d="M8 1.33333C8.79113 1.33333 9.56448 1.52883 10.2223 1.8951C10.8801 2.26137 11.3928 2.78197 11.6955 3.39106C11.9983 4.00014 12.0775 4.67036 11.9231 5.31697C11.7688 5.96357 11.3878 6.55751 10.8284 7.02369C10.269 7.48986 9.55629 7.80733 8.78036 7.93595C8.00444 8.06457 7.20017 7.99856 6.46927 7.74627C5.73836 7.49397 5.11365 7.06673 4.67412 6.51857C4.2346 5.9704 4 5.32594 4 4.66667C4 3.78261 4.42143 2.93477 5.17157 2.30964C5.92172 1.68452 6.93913 1.33333 8 1.33333ZM8 0C6.89242 0 5.80972 0.273695 4.88881 0.786475C3.96789 1.29926 3.25013 2.02809 2.82627 2.88081C2.40242 3.73353 2.29153 4.67184 2.5076 5.57709C2.72368 6.48233 3.25703 7.31385 4.0402 7.9665C4.82338 8.61914 5.8212 9.0636 6.90749 9.24366C7.99379 9.42373 9.11976 9.33131 10.143 8.9781C11.1663 8.6249 12.0409 8.02676 12.6562 7.25933C13.2716 6.4919 13.6 5.58965 13.6 4.66667C13.6 3.42899 13.01 2.242 11.9598 1.36683C10.9096 0.491665 9.48521 0 8 0ZM16 20H14.4V16.6667C14.4 16.2289 14.2965 15.7955 14.0955 15.3911C13.8945 14.9866 13.5999 14.6192 13.2284 14.3096C12.857 14.0001 12.416 13.7546 11.9307 13.5871C11.4454 13.4196 10.9253 13.3333 10.4 13.3333H5.6C4.53913 13.3333 3.52172 13.6845 2.77157 14.3096C2.02143 14.9348 1.6 15.7826 1.6 16.6667V20H0V16.6667C0 15.429 0.589999 14.242 1.6402 13.3668C2.69041 12.4917 4.11479 12 5.6 12H10.4C11.8852 12 13.3096 12.4917 14.3598 13.3668C15.41 14.242 16 15.429 16 16.6667V20Z" fill="white"/>
</svg>
